#N canvas 628 195 904 655 12;
#X obj 296 586 dac~;
#X obj 69 249 readsf~;
#X msg 96 153 1;
#X obj 42 36 bng 15 250 50 0 empty empty empty 17 7 0 10 -262144 -1
-1;
#X msg 49 98 open cicerospeech.wav;
#X msg 130 153 0;
#X obj 96 53 t b b;
#X obj 296 244 readsf~;
#X msg 313 151 1;
#X obj 268 29 bng 15 250 50 0 empty empty empty 17 7 0 10 -262144 -1
-1;
#X msg 347 151 0;
#X msg 266 96 open single-knife-hit.wav;
#X obj 312 44 trigger bang bang;
#X obj 305 538 rtap_delay10~;
#X msg 327 478 set_params;
#X obj 635 278 vsl 15 128 0 1 0 1 empty empty gain 0 -9 0 10 -260097
-1 -1 10160 1;
#X floatatom 635 420 5 0 0 0 - - -;
#X obj 554 277 vsl 15 128 0.01 10 0 1 empty empty delay_time 0 -9 0
10 -203904 -1 -1 242 1;
#X floatatom 552 421 5 0 0 0 - - -;
#X obj 709 278 vsl 15 128 0 1 0 1 empty empty pan 0 -9 0 10 -4034 -1
-1 8890 0;
#X floatatom 709 419 5 0 0 0 - - -;
#X obj 634 167 loadbang;
#X text 416 534 second audio input (last one) is ready to use \, try
to write some code for it!;
#X text 164 152 speech off;
#X text 388 153 sound off;
#X text 290 24 sound on;
#X text 62 31 speech on;
#X msg 707 220 0.7;
#X msg 554 220 0.2;
#X msg 633 220 0.8;
#X connect 1 0 0 0;
#X connect 1 0 0 1;
#X connect 1 0 13 0;
#X connect 1 1 3 0;
#X connect 2 0 1 0;
#X connect 3 0 6 0;
#X connect 4 0 1 0;
#X connect 5 0 1 0;
#X connect 6 0 2 0;
#X connect 6 1 4 0;
#X connect 7 0 13 0;
#X connect 7 0 0 0;
#X connect 7 0 0 1;
#X connect 7 1 9 0;
#X connect 8 0 7 0;
#X connect 9 0 12 0;
#X connect 10 0 7 0;
#X connect 11 0 7 0;
#X connect 12 0 8 0;
#X connect 12 1 11 0;
#X connect 13 0 0 0;
#X connect 13 1 0 1;
#X connect 14 0 13 0;
#X connect 15 0 16 0;
#X connect 16 0 14 0;
#X connect 16 0 13 2;
#X connect 17 0 18 0;
#X connect 18 0 14 0;
#X connect 18 0 13 1;
#X connect 19 0 20 0;
#X connect 20 0 14 0;
#X connect 20 0 13 3;
#X connect 21 0 27 0;
#X connect 21 0 29 0;
#X connect 21 0 28 0;
#X connect 27 0 19 0;
#X connect 28 0 17 0;
#X connect 29 0 15 0;
