#N canvas 628 195 904 655 12;
#X obj 206 493 dac~;
#X obj 103 265 readsf~;
#X msg 147 170 1;
#X obj 97 43 bng 15 250 50 0 empty empty empty 17 7 0 10 -262144 -1
-1;
#X obj 147 70 t b b;
#X msg 100 115 open cicerospeech.wav;
#X msg 181 170 0;
#X obj 280 363 rtap_delay8~;
#X msg 501 254 tap 3 0.05 0.8 1;
#X msg 344 145 tap 0 1.2 0.8 0.5;
#X msg 545 327 tap 5 0.5 0.8 0;
#X msg 391 179 tap 1 4.4 0.5 0.3;
#X msg 449 213 tap 2 0.6 0.7 0.8;
#X msg 527 298 tap 4 0.1 0 0.9;
#X connect 1 0 7 0;
#X connect 1 0 0 0;
#X connect 1 0 0 1;
#X connect 1 1 3 0;
#X connect 2 0 1 0;
#X connect 3 0 4 0;
#X connect 4 0 2 0;
#X connect 4 1 5 0;
#X connect 5 0 1 0;
#X connect 6 0 1 0;
#X connect 7 0 0 0;
#X connect 7 1 0 1;
#X connect 8 0 7 0;
#X connect 9 0 7 0;
#X connect 10 0 7 0;
#X connect 11 0 7 0;
#X connect 12 0 7 0;
#X connect 13 0 7 0;
