#N canvas 221 24 1232 697 10;
#X obj 84 63 r envelope;
#X text 181 65 sharp attack;
#X obj 84 85 t f b;
#X obj 134 137 f;
#X obj 134 102 delay 2;
#X obj 118 197 noise~;
#X obj 84 229 *~;
#X obj 84 251 *~;
#X obj 122 237 tgl 15 0 empty empty empty 17 7 0 10 -262144 -1 -1 1
1;
#X text 163 237 play;
#X obj 84 273 throw~ out;
#X obj 557 136 r fundamental;
#X obj 503 72 r envelope;
#X text 604 77 fundamental;
#X obj 504 185 *~;
#X obj 504 218 *~;
#X obj 551 203 tgl 15 0 empty empty empty 17 7 0 10 -262144 -1 -1 1
1;
#X text 576 201 play;
#X obj 504 253 throw~ out;
#X obj 551 426 r fundamental;
#X obj 504 366 r envelope;
#X obj 551 487 osc~;
#X obj 505 504 *~;
#X obj 505 537 *~;
#X obj 552 522 tgl 15 0 empty empty empty 17 7 0 10 -262144 -1 -1 1
1;
#X text 577 520 play;
#X obj 505 572 throw~ out;
#X obj 134 431 r fundamental;
#X obj 87 371 r envelope;
#X obj 134 491 osc~;
#X obj 88 508 *~;
#X obj 88 541 *~;
#X obj 135 526 tgl 15 0 empty empty empty 17 7 0 10 -262144 -1 -1 1
1;
#X text 160 524 play;
#X obj 88 576 throw~ out;
#X text 188 371 second partial;
#X text 605 366 third partial;
#X obj 134 453 *~ 2.35;
#X obj 551 455 *~ 3.8;
#X obj 907 78 catch~ out;
#X obj 809 94 *~ 0.25;
#X obj 809 116 dac~;
#X obj 907 147 grapher~;
#X obj 84 167 adsr~ 1 1 5 0 0;
#X obj 557 168 osc~;
#X obj 504 397 adsr~ 0.6 3 200 0 0;
#X obj 87 402 adsr~ 0.7 3 300 0 0;
#X obj 979 450 hsl 128 15 60 16000 1 0 empty empty fundamental -2 -8
0 10 -262130 -1 -1 9400 0;
#X msg 347 188 \; fundamental 2911 \; envelope 1 \;;
#X obj 976 514 s fundamental;
#X obj 904 514 s envelope;
#X obj 904 400 bng 50 250 50 0 empty empty empty 17 7 0 10 -4034 -1
-1;
#X msg 904 497 1;
#X floatatom 976 471 5 0 0 0 - - -;
#X text 959 403 experimental zone;
#X text 346 167 knife on wineglass;
#X obj 503 106 adsr~ 0.75 3 1000 0 0;
#X text 87 628 Hillerson "Programming Sound With Pure Data" \, 2014
;
#X connect 0 0 2 0;
#X connect 2 0 3 1;
#X connect 2 0 43 0;
#X connect 2 1 4 0;
#X connect 3 0 43 0;
#X connect 4 0 3 0;
#X connect 5 0 6 1;
#X connect 6 0 7 0;
#X connect 7 0 10 0;
#X connect 8 0 7 1;
#X connect 11 0 44 0;
#X connect 12 0 56 0;
#X connect 14 0 15 0;
#X connect 15 0 18 0;
#X connect 16 0 15 1;
#X connect 19 0 38 0;
#X connect 20 0 45 0;
#X connect 21 0 22 1;
#X connect 22 0 23 0;
#X connect 23 0 26 0;
#X connect 24 0 23 1;
#X connect 27 0 37 0;
#X connect 28 0 46 0;
#X connect 29 0 30 1;
#X connect 30 0 31 0;
#X connect 31 0 34 0;
#X connect 32 0 31 1;
#X connect 37 0 29 0;
#X connect 38 0 21 0;
#X connect 39 0 40 0;
#X connect 39 0 42 0;
#X connect 40 0 41 0;
#X connect 40 0 41 1;
#X connect 43 0 6 0;
#X connect 44 0 14 1;
#X connect 45 0 22 0;
#X connect 46 0 30 0;
#X connect 47 0 53 0;
#X connect 51 0 47 0;
#X connect 51 0 52 0;
#X connect 52 0 50 0;
#X connect 53 0 49 0;
#X connect 56 0 14 0;
