#N canvas 545 133 1097 831 12;
#X obj 515 615 dac~;
#X obj 422 552 vu 8 80 empty empty -1 -8 0 10 -66577 -1 1 0;
#X obj 421 489 env~ 128;
#X obj 421 520 - 100;
#X obj 516 400 rtap_fftconvolve~;
#X msg 532 214 loadfilter;
#X obj 333 273 readsf~;
#X msg 377 178 1;
#X obj 327 51 bng 15 250 50 0 empty empty empty 17 7 0 10 -262144 -1
-1;
#X obj 377 78 t b b;
#X msg 330 123 open cicerospeech.wav;
#X msg 411 178 0;
#X obj 247 556 vu 8 80 empty empty -1 -8 0 10 -66577 -1 1 0;
#X obj 246 493 env~ 128;
#X obj 246 524 - 100;
#X obj 515 441 *~ 1;
#X connect 2 0 3 0;
#X connect 3 0 1 0;
#X connect 4 0 15 0;
#X connect 5 0 4 0;
#X connect 6 0 4 0;
#X connect 6 0 13 0;
#X connect 6 1 8 0;
#X connect 7 0 6 0;
#X connect 8 0 9 0;
#X connect 9 0 7 0;
#X connect 9 1 10 0;
#X connect 10 0 6 0;
#X connect 11 0 6 0;
#X connect 13 0 14 0;
#X connect 14 0 12 0;
#X connect 15 0 0 0;
#X connect 15 0 0 1;
#X connect 15 0 2 0;
