#N canvas 628 195 904 655 12;
#X obj 199 618 dac~;
#X obj 69 249 readsf~;
#X msg 96 153 1;
#X obj 42 36 bng 15 250 50 0 empty empty empty 17 7 0 10 -262144 -1
-1;
#X msg 49 98 open cicerospeech.wav;
#X msg 130 153 0;
#X obj 305 538 rtap_delay9~;
#X msg 424 132 tap 0 0.5 1 1;
#X obj 96 53 t b b;
#X msg 447 161 rand_tap 1;
#X msg 544 157 rand_tap \$1;
#X obj 544 109 hradio 15 1 0 10 empty empty empty 0 -8 0 10 -4034 -1
-1 1;
#X floatatom 544 129 5 0 0 0 - - -;
#X floatatom 546 269 5 0 0 0 - - -;
#X obj 549 219 hsl 128 15 0 10 0 0 empty empty empty -2 -8 0 10 -159808
-1 -1 5400 0;
#X obj 546 242 int;
#X msg 549 503 rand_tap \$1;
#X obj 300 269 readsf~;
#X msg 313 151 1;
#X obj 268 29 bng 15 250 50 0 empty empty empty 17 7 0 10 -262144 -1
-1;
#X msg 347 151 0;
#X msg 266 96 open single-knife-hit.wav;
#X text 540 50 just trigger random set tab func with a tap number;
#X text 399 540 second input is ready to use \, try to write some code
for it!;
#X obj 546 297 trigger bang float bang float;
#X obj 649 330 f;
#X obj 649 358 ==;
#X obj 549 377 f;
#X obj 549 408 sel 0;
#X obj 549 442 f;
#X floatatom 549 474 5 0 0 0 - - -;
#X obj 312 44 trigger bang bang;
#X text 613 408 no duplicate numbers desired;
#X connect 1 0 6 0;
#X connect 1 0 0 0;
#X connect 1 0 0 1;
#X connect 1 1 3 0;
#X connect 2 0 1 0;
#X connect 3 0 8 0;
#X connect 4 0 1 0;
#X connect 5 0 1 0;
#X connect 6 0 0 0;
#X connect 6 1 0 1;
#X connect 7 0 6 0;
#X connect 8 0 2 0;
#X connect 8 1 4 0;
#X connect 9 0 6 0;
#X connect 10 0 6 0;
#X connect 11 0 12 0;
#X connect 12 0 10 0;
#X connect 13 0 24 0;
#X connect 13 0 25 1;
#X connect 14 0 15 0;
#X connect 15 0 13 0;
#X connect 16 0 6 0;
#X connect 17 0 6 0;
#X connect 17 0 0 0;
#X connect 17 0 0 1;
#X connect 17 1 19 0;
#X connect 18 0 17 0;
#X connect 19 0 31 0;
#X connect 20 0 17 0;
#X connect 21 0 17 0;
#X connect 24 0 27 0;
#X connect 24 1 25 1;
#X connect 24 2 25 0;
#X connect 24 3 26 1;
#X connect 24 3 29 1;
#X connect 25 0 26 0;
#X connect 26 0 27 1;
#X connect 27 0 28 0;
#X connect 28 0 29 0;
#X connect 29 0 30 0;
#X connect 30 0 16 0;
#X connect 31 0 18 0;
#X connect 31 1 21 0;
