#N canvas 12 77 1009 519 10;
#X obj 125 19 loadbang;
#X obj 125 63 soundfiler;
#X obj 125 85 s samples \$1;
#N canvas 1 77 450 250 (subpatch) 0;
#X array clang 76760 float 2;
#X coords 0 1 76760 -1 200 140 1 0 0;
#X restore 125 133 graph;
#X text 484 20 original;
#X text 788 23 clang;
#X text 488 186 short clang;
#X text 785 194 ringing hit;
#X obj 617 39 r envelope;
#X obj 639 71 r pitch;
#X obj 662 98 r duration;
#N canvas 390 145 631 450 sword 1;
#X obj 74 35 inlet envelope;
#X obj 216 35 inlet pitch;
#X obj 222 202 inlet duration;
#X obj 231 65 r samples;
#X obj 231 87 / 44.1;
#X text 286 86 convert samples into length;
#X obj 108 73 r samples;
#X obj 222 224 t f b;
#X msg 108 271 0 \$1;
#X msg 249 249 1;
#X obj 108 297 line~;
#X obj 74 191 tabread4~ clang;
#X obj 73 316 *~;
#N canvas 458 294 395 281 randopan 1;
#X obj 59 24 inlet~ signal;
#X obj 245 14 r envelope;
#X obj 245 49 t b;
#X obj 245 71 random 100;
#X obj 245 93 / 100;
#X obj 245 115 swap 1;
#X obj 245 137 -;
#X obj 245 159 sqrt;
#X obj 230 186 *~;
#X obj 75 152 sqrt;
#X obj 60 184 *~;
#X obj 60 206 outlet~ left;
#X obj 229 207 outlet~ right;
#X obj 89 184 print L;
#X obj 265 186 print R;
#X connect 0 0 8 0;
#X connect 0 0 10 0;
#X connect 1 0 2 0;
#X connect 2 0 3 0;
#X connect 3 0 4 0;
#X connect 4 0 5 0;
#X connect 4 0 9 0;
#X connect 5 0 6 0;
#X connect 5 1 6 1;
#X connect 6 0 7 0;
#X connect 7 0 8 1;
#X connect 7 0 14 0;
#X connect 8 0 12 0;
#X connect 9 0 10 1;
#X connect 9 0 13 0;
#X connect 10 0 11 0;
#X restore 73 350 pd randopan;
#X obj 73 396 outlet~ left;
#X obj 183 398 outlet~ right;
#X obj 216 113 *;
#X obj 74 169 ../subpatches/adsr~ 0 0 0 0 0;
#X connect 0 0 17 0;
#X connect 1 0 16 0;
#X connect 2 0 7 0;
#X connect 3 0 4 0;
#X connect 4 0 16 1;
#X connect 6 0 17 1;
#X connect 7 0 8 0;
#X connect 7 1 9 0;
#X connect 8 0 10 0;
#X connect 9 0 10 0;
#X connect 10 0 12 1;
#X connect 11 0 12 0;
#X connect 12 0 13 0;
#X connect 13 0 14 0;
#X connect 13 1 15 0;
#X connect 16 0 17 2;
#X connect 17 0 11 0;
#X restore 617 132 pd sword;
#X obj 642 190 dac~;
#X obj 196 299 bng 30 250 50 0 empty empty empty 17 7 0 10 -4034 -1
-1;
#X obj 196 339 t b b;
#X msg 196 369 start;
#X obj 239 446 readsf~;
#X msg 276 401 stop;
#X obj 235 478 dac~;
#X text 57 319 playing the soundfile;
#X msg 485 38 \; pitch 1 \; envelope 0 \; envelope 1 \; duration 2000
\;;
#X obj 619 317 grapher~;
#X msg 125 41 read -resize ../single-knife-hit.wav clang;
#X msg 244 356 open ../single-knife-hit.wav clang;
#X msg 489 211 \; pitch 2.02 \; envelope 0 \; envelope 1 \; duration
300;
#X msg 791 47 \; pitch 2.01 \; envelope 0 \; envelope 1 \; duration
500;
#X msg 788 222 \; pitch 2 \; envelope 0 \; envelope 1 \; duration 4000
;
#X text 680 485 Hillerson "Programming Sound With Pure Data" \, 2014
;
#X connect 0 0 22 0;
#X connect 1 0 2 0;
#X connect 8 0 11 0;
#X connect 9 0 11 1;
#X connect 10 0 11 2;
#X connect 11 0 12 0;
#X connect 11 0 21 0;
#X connect 11 1 12 1;
#X connect 13 0 14 0;
#X connect 14 0 15 0;
#X connect 14 1 23 0;
#X connect 15 0 16 0;
#X connect 16 0 18 0;
#X connect 16 0 18 1;
#X connect 17 0 16 0;
#X connect 22 0 1 0;
#X connect 23 0 16 0;
