#N canvas 534 160 780 602 12;
#X obj 243 336 dac~;
#X obj 109 266 vu 8 80 empty empty -1 -8 0 10 -66577 -1 1 0;
#X obj 109 228 env~ 128;
#X obj 108 246 - 100;
#X msg 201 104 frequency \$1;
#X floatatom 244 39 5 0 0 0 - - -;
#X obj 201 137 rtap_osc1~;
#X obj 327 233 *~ 0.5;
#X connect 2 0 3 0;
#X connect 3 0 1 0;
#X connect 4 0 6 0;
#X connect 5 0 4 0;
#X connect 6 0 2 0;
#X connect 6 0 7 0;
#X connect 7 0 0 0;
#X connect 7 0 0 1;
