#N canvas 212 469 538 421 12;
#X obj 89 70 bng 15 250 50 0 empty empty empty 17 7 0 10 -262144 -1
-1;
#X obj 89 137 t b b;
#X msg 125 175 open cicerospeech.wav;
#X msg 87 176 1;
#X msg 54 176 0;
#X obj 124 231 readsf~;
#X obj 204 366 dac~;
#X floatatom 368 233 5 0 0 0 - - -;
#X obj 370 59 vsl 15 128 100 8000 1 0 empty empty empty 0 -9 0 10 -4032
-1 -1 7300 1;
#X msg 272 251 freq \$1;
#X obj 229 289 rtap_biquad~;
#X connect 0 0 1 0;
#X connect 1 0 3 0;
#X connect 1 1 2 0;
#X connect 2 0 5 0;
#X connect 3 0 5 0;
#X connect 4 0 5 0;
#X connect 5 0 10 0;
#X connect 7 0 9 0;
#X connect 8 0 7 0;
#X connect 9 0 10 0;
#X connect 10 0 6 1;
#X connect 10 0 6 0;
