#N canvas 212 469 538 421 12;
#X obj 112 90 bng 15 250 50 0 empty empty empty 17 7 0 10 -262144 -1
-1;
#X obj 112 157 t b b;
#X msg 148 195 open cicerospeech.wav;
#X msg 110 196 1;
#X msg 77 196 0;
#X obj 147 251 readsf~;
#X obj 251 374 dac~;
#X obj 252 309 rtap_lowpass~;
#X floatatom 391 253 5 0 0 0 - - -;
#X obj 393 79 vsl 15 128 100 6000 1 0 empty empty empty 0 -9 0 10 -262144
-1 -1 12700 1;
#X msg 295 271 freq \$1;
#X connect 0 0 1 0;
#X connect 1 0 3 0;
#X connect 1 1 2 0;
#X connect 2 0 5 0;
#X connect 3 0 5 0;
#X connect 4 0 5 0;
#X connect 5 0 7 0;
#X connect 7 0 6 1;
#X connect 7 0 6 0;
#X connect 8 0 10 0;
#X connect 9 0 8 0;
#X connect 10 0 7 0;
