#N canvas 687 316 780 602 12;
#X obj 201 137 rtap_osc~;
#X obj 242 226 dac~;
#X obj 109 266 vu 8 80 empty empty -1 -8 0 10 -66577 -1 1 0;
#X obj 109 228 env~ 128;
#X obj 108 246 - 100;
#X msg 201 104 frequency \$1;
#X floatatom 244 39 5 0 0 0 - - -;
#X connect 0 0 1 0;
#X connect 0 0 1 1;
#X connect 0 0 3 0;
#X connect 3 0 4 0;
#X connect 4 0 2 0;
#X connect 5 0 0 0;
#X connect 6 0 5 0;
